<svg xmlns="http://www.w3.org/2000/svg" xmlns:xlink="http://www.w3.org/1999/xlink" id="Layer_1" x="0" y="0" version="1.1" viewBox="0 0 800 600" xml:space="preserve" style="enable-background:new 0 0 800 600"><style type="text/css">.st0{fill:url(#SVGID_1_)}.st1{fill:#bfd1ff}.st2{enable-background:new}.st3{fill:#fff}</style><switch><g><linearGradient id="SVGID_1_" x1="202" x2="614" y1="198" y2="198" gradientUnits="userSpaceOnUse"><stop offset="0" style="stop-color:#6cb5e4"/><stop offset=".03" style="stop-color:#55a9dd"/><stop offset=".09" style="stop-color:#3699d3"/><stop offset=".14" style="stop-color:#1e8ccc"/><stop offset=".2" style="stop-color:#0d83c6"/><stop offset=".26" style="stop-color:#037ec3"/><stop offset=".34" style="stop-color:#007cc2"/><stop offset=".39" style="stop-color:#0076b7"/><stop offset=".53" style="stop-color:#006a9d"/><stop offset=".62" style="stop-color:#006594"/><stop offset=".82" style="stop-color:#005da2"/><stop offset="1" style="stop-color:#0059a9"/></linearGradient><path d="M219.9,121h376.2c9.9,0,17.9,8,17.9,17.9v118.2c0,9.9-8,17.9-17.9,17.9H219.9c-9.9,0-17.9-8-17.9-17.9V138.9 C202,129,210,121,219.9,121z" class="st0"/><path d="M315.3,145.9L315,275h-12l0.3-57.2l-0.3-0.1c-1.1,1-2.2,2-3.4,2.9c-1.4,1.1-2.9,2-4.5,2.7 c-1.8,0.8-3.8,1.5-5.7,2c-2.3,0.6-4.7,0.8-7.1,0.8c-4.5,0.1-9-0.9-13.1-2.8c-3.9-1.8-7.3-4.3-10.2-7.4c-2.9-3.1-5.1-6.7-6.7-10.6 c-1.6-4-2.4-8.3-2.4-12.6c0-4.2,0.8-8.3,2.4-12.2c1.5-3.7,3.7-7,6.5-9.8c2.8-2.8,6.1-5,9.7-6.5c3.8-1.6,7.8-2.4,11.9-2.4 c1.5,0,2.9,0.1,4.4,0.3c1.9,0.2,3.9,0.7,5.7,1.3c2.2,0.8,4.3,1.7,6.3,2.9c2.3,1.4,4.4,3.2,6.3,5.2l0.3-0.1v-25.6 M303.6,185.2 c-2.8-3.5-6.2-6.5-10-8.9c-3.7-2.3-7.9-3.5-12.2-3.4c-3.2-0.1-6.3,0.6-9.1,2c-2.4,1.3-4.5,3-6.1,5.1c-1.6,2-2.8,4.4-3.5,6.9 c-0.7,2.4-1.1,4.8-1.1,7.3c0,2.6,0.4,5.1,1.2,7.5c0.8,2.4,2,4.7,3.7,6.7s3.7,3.6,6.1,4.8c2.7,1.3,5.6,1.9,8.5,1.9 c3.2,0,6.3-0.6,9.2-1.9c2.6-1.2,5.1-2.9,7.1-4.9c1.9-1.9,3.5-4.2,4.6-6.7c1-2.3,1.6-4.7,1.6-7.2L303.6,185.2z" class="st1"/><g class="st2"><path d="M390.2,255.6h-12v-43.2c0-15.6-5.8-23.4-17.4-23.4c-5.9,0-10.8,2.3-14.8,6.8s-6,10.3-6,17.4v42.5h-12V144.5 h12V193h0.3c5.8-9.5,14-14.2,24.6-14.2c16.9,0,25.4,10.2,25.4,30.6v46.2H390.2z" class="st3"/><path d="M466.5,255.6h-12v-11.7h-0.3c-5.2,9-12.9,13.5-23.1,13.5c-7.5,0-13.3-2-17.5-5.9c-4.2-4-6.3-9.2-6.3-15.8 c0-14,8.3-22.2,24.8-24.5l22.5-3.2c0-12.8-5.2-19.1-15.5-19.1c-9,0-17.2,3.1-24.5,9.2v-12.3c7.4-4.7,15.9-7,25.5-7 c17.6,0,26.5,9.3,26.5,28v48.8H466.5z M454.5,217.6l-18.1,2.5c-5.6,0.8-9.8,2.2-12.6,4.1c-2.8,2-4.3,5.5-4.3,10.5 c0,3.7,1.3,6.7,3.9,9s6.1,3.5,10.4,3.5c6,0,10.9-2.1,14.8-6.3s5.8-9.5,5.8-15.9v-7.4H454.5z" class="st3"/><path d="M551.5,255.6h-12v-42.8c0-15.9-5.8-23.9-17.4-23.9c-6,0-11,2.3-14.9,6.8s-5.9,10.2-5.9,17.1v42.8h-12v-75h12 V193h0.3c5.7-9.5,13.9-14.2,24.6-14.2c8.2,0,14.5,2.7,18.8,8s6.5,13,6.5,23L551.5,255.6L551.5,255.6z" class="st3"/></g><rect width="12" height="111.2" x="328" y="144.5" class="st1"/><path d="M234.2,135h350.6c2.3,0,4.2,1.9,4.2,4.2v2.6c0,2.3-1.9,4.2-4.2,4.2H234.2c-2.3,0-4.2-1.9-4.2-4.2v-2.6 C230,136.9,231.9,135,234.2,135z" class="st3"/><g class="st2"><path d="M242.9,300.2l-0.4-1.3c-0.1-0.3-0.2-0.5-0.2-0.8c-0.1-0.4-0.3-1-0.7-1.9l-4.3-12c0.2,0,0.4,0,0.5,0c0.2,0,0.3,0,0.5,0 l0.7,2.2l4.7,13.1l6.4-12.5l0.6-1.3c0.2-0.4,0.4-0.9,0.7-1.5c0.2,0,0.4,0,0.6,0c0.2,0,0.4,0,0.6,0c-0.7,1.3-1.6,3-2.8,5.2l-3.1,6 c-0.9,1.8-1.7,3.4-2.3,4.8c-0.3,0-0.5,0-0.7,0C243.4,300.2,243.2,300.2,242.9,300.2z"/><path d="M262.9,299c-0.1,0.3-0.1,0.6-0.1,0.9c-0.6,0.2-1.2,0.3-1.7,0.4s-1,0.1-1.6,0.1c-0.9,0-1.8-0.1-2.5-0.4 c-0.7-0.3-1.3-0.7-1.9-1.3c-0.5-0.6-0.9-1.3-1.1-2c-0.2-0.7-0.3-1.5-0.3-2.3c0-1.1,0.2-2.1,0.6-3s1-1.7,1.9-2.4s1.9-0.9,3.2-0.9 c0.9,0,1.7,0.2,2.4,0.5s1.3,0.9,1.7,1.6s0.6,1.6,0.6,2.6c0,0.2,0,0.4,0,0.5l-9.3,0c0,0.5-0.1,0.9-0.1,1.1c0,0.7,0.1,1.5,0.3,2.2 c0.2,0.7,0.5,1.3,1,1.7c0.4,0.5,1,0.8,1.6,1c0.6,0.2,1.3,0.3,2,0.3C260.4,299.7,261.6,299.5,262.9,299z M254.7,292.7l8.3,0 c0-0.5,0-1-0.1-1.2s-0.2-0.6-0.3-0.9c-0.1-0.3-0.3-0.6-0.5-0.8s-0.4-0.4-0.7-0.6s-0.6-0.3-0.9-0.3c-0.3-0.1-0.7-0.1-1.1-0.1 c-0.4,0-0.8,0-1.2,0.1s-0.8,0.2-1.1,0.4s-0.6,0.4-0.9,0.6s-0.5,0.5-0.7,0.8c-0.2,0.3-0.3,0.6-0.4,0.8 C254.9,291.8,254.8,292.2,254.7,292.7z"/><path d="M267,300.2l0.4-7.6c0-0.7,0.1-2.7,0.1-5.7l0.1-2.6c0.2,0,0.3,0,0.4,0c0.1,0,0.3,0,0.5,0l-0.3,6.8 c0.2-0.4,0.3-0.7,0.5-0.9s0.3-0.4,0.5-0.7s0.5-0.4,0.7-0.6s0.5-0.3,0.8-0.4c0.3-0.1,0.7-0.2,1.1-0.3s0.9-0.1,1.3-0.1 c0.7,0,1.3,0.1,1.9,0.2s1.1,0.4,1.6,0.7s0.7,0.7,0.9,1.2s0.2,1,0.2,1.4c0,0.2,0,0.4,0,0.7c0,0.4,0,1-0.1,1.7l-0.2,4.8 c0,0.3,0,0.7,0,1.3c-0.2,0-0.4,0-0.5,0c-0.1,0-0.3,0-0.5,0c0.1-1,0.2-2,0.2-3l0.2-2.9c0.1-0.9,0.1-1.6,0.1-2.3 c0-0.7-0.1-1.3-0.4-1.8s-0.7-0.8-1.4-1.1c-0.7-0.2-1.3-0.4-2.1-0.4c-0.5,0-1,0.1-1.4,0.2c-0.4,0.1-0.8,0.2-1.1,0.4 c-0.3,0.1-0.5,0.3-0.8,0.5c-0.2,0.2-0.5,0.5-0.7,0.8c-0.2,0.4-0.4,0.7-0.5,1.2c-0.1,0.4-0.2,0.9-0.3,1.6 c-0.1,0.5-0.1,1.5-0.2,3.1l-0.1,3.7c-0.2,0-0.4,0-0.5,0C267.4,300.2,267.2,300.2,267,300.2z"/><path d="M281.7,300.2c0.1-1.2,0.2-3.2,0.3-6.1c0.1-2.9,0.2-4.8,0.2-5.7c0.2,0,0.4,0,0.5,0c0.1,0,0.3,0,0.5,0 c-0.1,1.5-0.2,3.5-0.3,6.1c-0.1,2.6-0.2,4.5-0.2,5.8c-0.2,0-0.4,0-0.5,0C282,300.2,281.9,300.2,281.7,300.2z M282.1,285.3l0-1.2 c0.2,0,0.4,0,0.6,0s0.4,0,0.6,0l0,1.2c-0.2,0-0.4,0-0.6,0S282.3,285.3,282.1,285.3z"/><path d="M295,299.2c-0.1,0.3-0.1,0.6-0.2,0.9c-1,0.2-1.9,0.3-2.8,0.3c-0.8,0-1.6-0.1-2.3-0.3c-0.7-0.2-1.3-0.6-1.8-1.1 c-0.5-0.5-0.9-1.1-1.1-1.9s-0.4-1.6-0.4-2.4c0-1.1,0.2-2.2,0.6-3.3s1-1.8,1.9-2.4c0.8-0.6,2-0.9,3.4-0.9c1.1,0,2.1,0.1,3,0.4 c0,0.3,0,0.5,0.1,0.8c-0.8-0.3-1.4-0.4-1.9-0.5s-0.9-0.1-1.3-0.1c-0.8,0-1.5,0.2-2.2,0.5c-0.6,0.3-1.2,0.8-1.6,1.3 s-0.7,1.2-0.9,1.9s-0.3,1.4-0.3,2.1c0,0.8,0.1,1.5,0.3,2.2c0.2,0.7,0.5,1.2,0.9,1.6c0.4,0.4,1,0.7,1.6,1c0.6,0.2,1.3,0.3,2,0.3 c0.4,0,0.8,0,1.2-0.1S294.3,299.4,295,299.2z"/><path d="M298.7,300.2c0.4-6.5,0.6-11.8,0.6-16c0.2,0,0.4,0,0.5,0s0.3,0,0.5,0l-0.3,5.7l-0.3,10.3c-0.2,0-0.4,0-0.5,0 C299,300.2,298.9,300.2,298.7,300.2z"/><path d="M312.8,299c-0.1,0.3-0.1,0.6-0.1,0.9c-0.6,0.2-1.2,0.3-1.7,0.4s-1,0.1-1.6,0.1c-0.9,0-1.8-0.1-2.5-0.4 c-0.7-0.3-1.3-0.7-1.9-1.3c-0.5-0.6-0.9-1.3-1.1-2c-0.2-0.7-0.3-1.5-0.3-2.3c0-1.1,0.2-2.1,0.6-3s1-1.7,1.9-2.4s1.9-0.9,3.2-0.9 c0.9,0,1.7,0.2,2.4,0.5s1.3,0.9,1.7,1.6s0.6,1.6,0.6,2.6c0,0.2,0,0.4,0,0.5l-9.3,0c0,0.5-0.1,0.9-0.1,1.1c0,0.7,0.1,1.5,0.3,2.2 c0.2,0.7,0.5,1.3,1,1.7c0.4,0.5,1,0.8,1.6,1c0.6,0.2,1.3,0.3,2,0.3C310.4,299.7,311.5,299.5,312.8,299z M304.6,292.7l8.3,0 c0-0.5,0-1-0.1-1.2s-0.2-0.6-0.3-0.9c-0.1-0.3-0.3-0.6-0.5-0.8s-0.4-0.4-0.7-0.6s-0.6-0.3-0.9-0.3c-0.3-0.1-0.7-0.1-1.1-0.1 c-0.4,0-0.8,0-1.2,0.1s-0.8,0.2-1.1,0.4s-0.6,0.4-0.9,0.6s-0.5,0.5-0.7,0.8c-0.2,0.3-0.3,0.6-0.4,0.8 C304.8,291.8,304.7,292.2,304.6,292.7z"/><path d="M321.8,300.2l3.9-7.7l3.5-6.8l0.7-1.5c0.2,0,0.4,0,0.6,0c0.2,0,0.4,0,0.6,0l2.3,6.4l3.5,9.6c-0.2,0-0.4,0-0.5,0 c-0.2,0-0.3,0-0.5,0c-0.2-0.8-0.6-2-1.2-3.7s-1.1-3-1.4-3.9h-6.6l-3.7,7.6c-0.2,0-0.4,0-0.5,0S322,300.2,321.8,300.2z M327,291.8 h6l-2.5-6.9L327,291.8z"/><path d="M348.1,299.2c-0.1,0.3-0.1,0.6-0.2,0.9c-1,0.2-1.9,0.3-2.8,0.3c-0.8,0-1.6-0.1-2.3-0.3c-0.7-0.2-1.3-0.6-1.8-1.1 c-0.5-0.5-0.9-1.1-1.1-1.9s-0.4-1.6-0.4-2.4c0-1.1,0.2-2.2,0.6-3.3s1-1.8,1.9-2.4c0.8-0.6,2-0.9,3.4-0.9c1.1,0,2.1,0.1,3,0.4 c0,0.3,0,0.5,0.1,0.8c-0.8-0.3-1.4-0.4-1.9-0.5s-0.9-0.1-1.3-0.1c-0.8,0-1.5,0.2-2.2,0.5c-0.6,0.3-1.2,0.8-1.6,1.3 s-0.7,1.2-0.9,1.9s-0.3,1.4-0.3,2.1c0,0.8,0.1,1.5,0.3,2.2c0.2,0.7,0.5,1.2,0.9,1.6c0.4,0.4,1,0.7,1.6,1c0.6,0.2,1.3,0.3,2,0.3 c0.4,0,0.8,0,1.2-0.1S347.4,299.4,348.1,299.2z"/><path d="M359.9,299.2c-0.1,0.3-0.1,0.6-0.2,0.9c-1,0.2-1.9,0.3-2.8,0.3c-0.8,0-1.6-0.1-2.3-0.3c-0.7-0.2-1.3-0.6-1.8-1.1 c-0.5-0.5-0.9-1.1-1.1-1.9s-0.4-1.6-0.4-2.4c0-1.1,0.2-2.2,0.6-3.3s1-1.8,1.9-2.4c0.8-0.6,2-0.9,3.4-0.9c1.1,0,2.1,0.1,3,0.4 c0,0.3,0,0.5,0.1,0.8c-0.8-0.3-1.4-0.4-1.9-0.5s-0.9-0.1-1.3-0.1c-0.8,0-1.5,0.2-2.2,0.5c-0.6,0.3-1.2,0.8-1.6,1.3 s-0.7,1.2-0.9,1.9s-0.3,1.4-0.3,2.1c0,0.8,0.1,1.5,0.3,2.2c0.2,0.7,0.5,1.2,0.9,1.6c0.4,0.4,1,0.7,1.6,1c0.6,0.2,1.3,0.3,2,0.3 c0.4,0,0.8,0,1.2-0.1S359.2,299.4,359.9,299.2z"/><path d="M363.6,300.2c0.1-1.2,0.2-3.2,0.3-6.1c0.1-2.9,0.2-4.8,0.2-5.7c0.2,0,0.4,0,0.5,0c0.1,0,0.3,0,0.5,0 c-0.1,1.5-0.2,3.5-0.3,6.1c-0.1,2.6-0.2,4.5-0.2,5.8c-0.2,0-0.4,0-0.5,0C364,300.2,363.8,300.2,363.6,300.2z M364.1,285.3l0-1.2 c0.2,0,0.4,0,0.6,0s0.4,0,0.6,0l0,1.2c-0.2,0-0.4,0-0.6,0S364.3,285.3,364.1,285.3z"/><path d="M379,300.2c-0.2,0-0.4,0-0.5,0c-0.1,0-0.3,0-0.5,0l0.2-3c-0.2,0.5-0.4,0.8-0.5,1.1s-0.4,0.5-0.6,0.8 c-0.2,0.3-0.5,0.5-0.9,0.7c-0.4,0.2-0.8,0.4-1.2,0.5c-0.5,0.1-0.9,0.2-1.4,0.2c-0.8,0-1.5-0.1-2.1-0.4c-0.7-0.3-1.2-0.7-1.7-1.2 c-0.5-0.5-0.8-1.1-1-1.7c-0.2-0.7-0.3-1.4-0.3-2.1c0-1,0.2-1.9,0.6-2.9s0.9-1.7,1.6-2.3c0.7-0.6,1.5-1.1,2.4-1.3 c0.9-0.3,1.8-0.4,2.8-0.4c0.8,0,1.7,0.1,2.6,0.3c0-0.7,0.1-1.5,0.1-2.1c0-0.6,0-1.3,0-2c0.2,0,0.4,0,0.5,0c0.1,0,0.3,0,0.5,0 c-0.1,1.5-0.2,3-0.2,4.6l-0.2,5.7c-0.1,2.2-0.1,3.6-0.1,4.3V300.2z M378.4,289.2c-0.6-0.2-1-0.3-1.4-0.3 c-0.4-0.1-0.8-0.1-1.2-0.1c-0.9,0-1.7,0.1-2.5,0.4c-0.8,0.2-1.5,0.7-2.1,1.2c-0.6,0.6-1.1,1.3-1.4,2.1s-0.5,1.7-0.5,2.5 c0,0.9,0.2,1.8,0.5,2.5c0.4,0.8,0.9,1.3,1.5,1.7c0.7,0.4,1.4,0.5,2.2,0.5c0.5,0,0.9-0.1,1.3-0.2c0.4-0.1,0.7-0.3,1.1-0.5 c0.3-0.2,0.6-0.5,0.9-0.8c0.3-0.3,0.5-0.7,0.7-1.2c0.2-0.5,0.4-1,0.5-1.5c0.1-0.5,0.2-1.4,0.2-2.5L378.4,289.2z"/><path d="M392.1,299c-0.1,0.3-0.1,0.6-0.1,0.9c-0.6,0.2-1.2,0.3-1.7,0.4s-1,0.1-1.6,0.1c-0.9,0-1.8-0.1-2.5-0.4 c-0.7-0.3-1.3-0.7-1.9-1.3c-0.5-0.6-0.9-1.3-1.1-2c-0.2-0.7-0.3-1.5-0.3-2.3c0-1.1,0.2-2.1,0.6-3s1-1.7,1.9-2.4s1.9-0.9,3.2-0.9 c0.9,0,1.7,0.2,2.4,0.5s1.3,0.9,1.7,1.6s0.6,1.6,0.6,2.6c0,0.2,0,0.4,0,0.5l-9.3,0c0,0.5-0.1,0.9-0.1,1.1c0,0.7,0.1,1.5,0.3,2.2 c0.2,0.7,0.5,1.3,1,1.7c0.4,0.5,1,0.8,1.6,1c0.6,0.2,1.3,0.3,2,0.3C389.6,299.7,390.8,299.5,392.1,299z M383.8,292.7l8.3,0 c0-0.5,0-1-0.1-1.2s-0.2-0.6-0.3-0.9c-0.1-0.3-0.3-0.6-0.5-0.8s-0.4-0.4-0.7-0.6s-0.6-0.3-0.9-0.3c-0.3-0.1-0.7-0.1-1.1-0.1 c-0.4,0-0.8,0-1.2,0.1s-0.8,0.2-1.1,0.4s-0.6,0.4-0.9,0.6s-0.5,0.5-0.7,0.8c-0.2,0.3-0.3,0.6-0.4,0.8 C384.1,291.8,384,292.2,383.8,292.7z"/><path d="M396,300.2l0.4-7.2l0.1-3.4c0-0.6,0-1,0-1.3c0.2,0,0.4,0,0.5,0c0.1,0,0.2,0,0.4,0l-0.2,2.7c0.2-0.4,0.3-0.6,0.4-0.8 s0.3-0.4,0.5-0.6c0.2-0.2,0.4-0.4,0.7-0.6c0.3-0.2,0.6-0.4,1-0.5c0.4-0.1,0.8-0.2,1.2-0.3c0.4-0.1,0.8-0.1,1.2-0.1 c0.7,0,1.3,0.1,1.9,0.2c0.6,0.1,1.1,0.4,1.5,0.8c0.4,0.4,0.7,0.8,0.8,1.3s0.2,1,0.2,1.5c0,0.2,0,0.6,0,1.1l-0.2,5.3l0,1.9 c-0.2,0-0.3,0-0.5,0s-0.3,0-0.4,0c0.1-1,0.1-1.9,0.2-2.8l0.2-3c0.1-1.1,0.1-1.9,0.1-2.4c0-0.5-0.1-1-0.2-1.4s-0.4-0.7-0.8-1 c-0.4-0.3-0.8-0.5-1.3-0.6s-1-0.2-1.5-0.2c-0.7,0-1.4,0.1-2,0.3c-0.5,0.2-1,0.5-1.4,0.9c-0.4,0.4-0.7,0.9-1,1.4 c-0.2,0.4-0.3,1-0.4,1.8c-0.1,0.7-0.2,1.7-0.2,3.2c-0.1,1.5-0.1,2.7-0.1,3.8c-0.2,0-0.4,0-0.5,0S396.2,300.2,396,300.2z"/><path d="M415.4,299.4c-0.1,0.2-0.1,0.5-0.1,0.7c-0.6,0.2-1.2,0.2-1.7,0.2c-0.4,0-0.8,0-1.2-0.1s-0.6-0.3-0.8-0.5 s-0.4-0.5-0.4-0.8s-0.1-0.6-0.1-1c0-0.1,0-0.2,0-0.3s0-0.4,0-0.9l0.4-7.8h-1.4c0-0.2,0.1-0.4,0.1-0.6h1.4c0-0.5,0.1-1.2,0.1-2.2 c0.3,0,0.6-0.1,0.8-0.2c-0.1,1.3-0.1,2.1-0.1,2.4h3.5c0,0.2-0.1,0.4-0.1,0.6h-3.5l-0.4,8l0,0.5c0,0.7,0.1,1.1,0.2,1.4 s0.4,0.5,0.6,0.6s0.6,0.2,0.9,0.2c0.2,0,0.4,0,0.7-0.1S414.8,299.6,415.4,299.4z"/><path d="M425.1,300.2c0.2-3.4,0.3-6.5,0.4-9.4s0.1-5.1,0.1-6.6c0.2,0,0.4,0,0.5,0s0.3,0,0.5,0l-0.3,7.5h10.9l0.2-5.9 c0-0.3,0-0.9,0-1.6c0.2,0,0.4,0,0.5,0s0.3,0,0.5,0c-0.3,4.8-0.5,10.2-0.6,16c-0.2,0-0.4,0-0.5,0c-0.2,0-0.3,0-0.5,0 c0.2-2.7,0.3-5.3,0.3-7.8h-10.9l-0.2,5.8l0,2c-0.2,0-0.4,0-0.5,0C425.5,300.2,425.3,300.2,425.1,300.2z"/><path d="M443.1,289.6c0.1-0.3,0.1-0.6,0.1-0.9c0.8-0.2,1.5-0.4,2.1-0.5s1.2-0.1,1.8-0.1c0.7,0,1.3,0.1,1.9,0.2s1.1,0.3,1.5,0.6 s0.6,0.6,0.8,1s0.2,0.7,0.2,1.1c0,0.4,0,0.9,0,1.5s-0.1,1.2-0.1,1.9c0,0.7-0.1,1.5-0.1,2.6s-0.1,1.8-0.1,2.2v1 c-0.2,0-0.4,0-0.5,0c-0.1,0-0.3,0-0.5,0c0.1-1.2,0.2-2.2,0.2-2.9c0-0.7,0.1-1.5,0.1-2.4s0.1-1.7,0.1-2.4 c-0.2,0.2-0.4,0.4-0.6,0.5c-0.1,0.1-0.3,0.2-0.4,0.3s-0.3,0.2-0.6,0.2c-0.2,0.1-0.4,0.2-0.6,0.2s-0.6,0.2-1.3,0.4 c-0.7,0.2-1.2,0.3-1.5,0.4c-0.7,0.2-1.2,0.4-1.6,0.6c-0.4,0.2-0.7,0.4-1,0.7c-0.2,0.2-0.4,0.5-0.5,0.7c-0.1,0.3-0.2,0.6-0.2,0.9 c0,0.5,0.2,0.9,0.5,1.3c0.3,0.4,0.7,0.6,1.2,0.8c0.5,0.2,1,0.2,1.7,0.2c0.3,0,0.6,0,0.9-0.1s0.6-0.1,0.9-0.1s0.7-0.2,1.2-0.3 c-0.1,0.3-0.1,0.6-0.2,0.9c-0.6,0.1-1.1,0.2-1.5,0.2s-0.8,0.1-1.1,0.1c-0.7,0-1.3-0.1-1.8-0.2s-1-0.3-1.4-0.6s-0.7-0.6-0.8-1 c-0.2-0.4-0.3-0.8-0.3-1.2c0-0.3,0.1-0.6,0.2-1s0.3-0.6,0.5-0.9c0.2-0.2,0.4-0.5,0.8-0.7c0.4-0.3,0.8-0.5,1.2-0.6 c0.5-0.2,1.1-0.4,1.7-0.6c0.2,0,0.8-0.2,1.9-0.5c0.5-0.1,1-0.3,1.4-0.5c0.5-0.2,0.8-0.5,1.1-0.8c0.2-0.4,0.4-0.7,0.4-1.1 c0-0.3-0.1-0.5-0.2-0.8s-0.3-0.5-0.6-0.7s-0.7-0.4-1.1-0.5c-0.4-0.1-0.9-0.1-1.4-0.1c-0.6,0-1.1,0-1.6,0.1 c-0.5,0.1-0.9,0.2-1.3,0.3S443.6,289.4,443.1,289.6z"/><path d="M454.2,300.2c0-0.4,0-0.7,0-1l1.4-1.8l5.6-7.3c0.2-0.2,0.4-0.5,0.7-1c-0.9,0-1.7,0-2.5,0c-1.5,0-3,0-4.4,0.1 c0-0.3,0-0.5,0-0.8c1.3,0,2.6,0,4,0l3.7,0c0,0.2,0,0.5,0,0.9v0.1l-7.7,10.1c0.7,0,1.5,0,2.4,0c2,0,3.7,0,4.9-0.1 c0,0.3,0,0.6,0,0.8c-1.3,0-2.5,0-3.8,0h-3.4L454.2,300.2z"/><path d="M466.5,289.6c0.1-0.3,0.1-0.6,0.1-0.9c0.8-0.2,1.5-0.4,2.1-0.5s1.2-0.1,1.8-0.1c0.7,0,1.3,0.1,1.9,0.2s1.1,0.3,1.5,0.6 s0.6,0.6,0.8,1s0.2,0.7,0.2,1.1c0,0.4,0,0.9,0,1.5s-0.1,1.2-0.1,1.9c0,0.7-0.1,1.5-0.1,2.6s-0.1,1.8-0.1,2.2v1 c-0.2,0-0.4,0-0.5,0c-0.1,0-0.3,0-0.5,0c0.1-1.2,0.2-2.2,0.2-2.9c0-0.7,0.1-1.5,0.1-2.4s0.1-1.7,0.1-2.4 c-0.2,0.2-0.4,0.4-0.6,0.5c-0.1,0.1-0.3,0.2-0.4,0.3s-0.3,0.2-0.6,0.2c-0.2,0.1-0.4,0.2-0.6,0.2s-0.6,0.2-1.3,0.4 c-0.7,0.2-1.2,0.3-1.5,0.4c-0.7,0.2-1.2,0.4-1.6,0.6c-0.4,0.2-0.7,0.4-1,0.7c-0.2,0.2-0.4,0.5-0.5,0.7c-0.1,0.3-0.2,0.6-0.2,0.9 c0,0.5,0.2,0.9,0.5,1.3c0.3,0.4,0.7,0.6,1.2,0.8c0.5,0.2,1,0.2,1.7,0.2c0.3,0,0.6,0,0.9-0.1s0.6-0.1,0.9-0.1s0.7-0.2,1.2-0.3 c-0.1,0.3-0.1,0.6-0.2,0.9c-0.6,0.1-1.1,0.2-1.5,0.2s-0.8,0.1-1.1,0.1c-0.7,0-1.3-0.1-1.8-0.2s-1-0.3-1.4-0.6s-0.7-0.6-0.8-1 c-0.2-0.4-0.3-0.8-0.3-1.2c0-0.3,0.1-0.6,0.2-1s0.3-0.6,0.5-0.9c0.2-0.2,0.4-0.5,0.8-0.7c0.4-0.3,0.8-0.5,1.2-0.6 c0.5-0.2,1.1-0.4,1.7-0.6c0.2,0,0.8-0.2,1.9-0.5c0.5-0.1,1-0.3,1.4-0.5c0.5-0.2,0.8-0.5,1.1-0.8c0.2-0.4,0.4-0.7,0.4-1.1 c0-0.3-0.1-0.5-0.2-0.8s-0.3-0.5-0.6-0.7s-0.7-0.4-1.1-0.5c-0.4-0.1-0.9-0.1-1.4-0.1c-0.6,0-1.1,0-1.6,0.1 c-0.5,0.1-0.9,0.2-1.3,0.3S467.1,289.4,466.5,289.6z"/><path d="M478.6,300.2c0.1-1.6,0.2-3.6,0.3-5.8s0.1-3.9,0.1-5l0-1.1c0.2,0,0.3,0,0.4,0c0.1,0,0.3,0,0.4,0l-0.1,2.2 c0.3-0.5,0.5-0.9,0.7-1.2s0.5-0.5,0.8-0.7s0.7-0.3,1.1-0.4s0.8-0.1,1.3-0.1c0.3,0,0.6,0,1,0.1c0,0.3,0,0.5,0,0.8 c-0.5-0.1-1-0.2-1.4-0.2c-0.4,0-0.7,0.1-1,0.2s-0.6,0.3-0.8,0.4c-0.3,0.2-0.5,0.5-0.8,0.8s-0.4,0.7-0.6,1.1 c-0.2,0.4-0.3,1-0.3,1.6c-0.1,1-0.1,2.1-0.2,3.4c0,1.7,0,3,0,3.8c-0.2,0-0.4,0-0.5,0C479,300.2,478.8,300.2,478.6,300.2z"/><path d="M497.2,300.2c-0.2,0-0.4,0-0.5,0c-0.1,0-0.3,0-0.5,0l0.2-3c-0.2,0.5-0.4,0.8-0.5,1.1s-0.4,0.5-0.6,0.8 c-0.2,0.3-0.5,0.5-0.9,0.7c-0.4,0.2-0.8,0.4-1.2,0.5c-0.5,0.1-0.9,0.2-1.4,0.2c-0.8,0-1.5-0.1-2.1-0.4c-0.7-0.3-1.2-0.7-1.7-1.2 c-0.5-0.5-0.8-1.1-1-1.7c-0.2-0.7-0.3-1.4-0.3-2.1c0-1,0.2-1.9,0.6-2.9s0.9-1.7,1.6-2.3c0.7-0.6,1.5-1.1,2.4-1.3 c0.9-0.3,1.8-0.4,2.8-0.4c0.8,0,1.7,0.1,2.6,0.3c0-0.7,0.1-1.5,0.1-2.1c0-0.6,0-1.3,0-2c0.2,0,0.4,0,0.5,0s0.3,0,0.5,0 c-0.1,1.5-0.2,3-0.2,4.6l-0.2,5.7c-0.1,2.2-0.1,3.6-0.1,4.3V300.2z M496.6,289.2c-0.6-0.2-1-0.3-1.4-0.3s-0.8-0.1-1.2-0.1 c-0.9,0-1.7,0.1-2.5,0.4c-0.8,0.2-1.5,0.7-2.1,1.2c-0.6,0.6-1.1,1.3-1.4,2.1s-0.5,1.7-0.5,2.5c0,0.9,0.2,1.8,0.5,2.5 c0.4,0.8,0.9,1.3,1.5,1.7c0.7,0.4,1.4,0.5,2.2,0.5c0.5,0,0.9-0.1,1.3-0.2c0.4-0.1,0.7-0.3,1.1-0.5c0.3-0.2,0.6-0.5,0.9-0.8 c0.3-0.3,0.5-0.7,0.8-1.2c0.2-0.5,0.4-1,0.5-1.5c0.1-0.5,0.2-1.4,0.2-2.5L496.6,289.2z"/><path d="M508.5,300.2l0.3-4.6l0.3-9.5l0-1.9c0.2,0,0.4,0,0.7,0c0.3,0,0.5,0,0.7,0c0.4,0.6,0.7,1.1,1,1.5s0.8,1.2,1.6,2.3l6,8.7 c0.6,0.9,1.2,1.8,1.9,2.6l0.5-13.3l0-1.8c0.2,0,0.4,0,0.5,0c0.1,0,0.3,0,0.5,0l-0.2,3.7l-0.4,10l0,2.3c-0.3,0-0.5,0-0.7,0 c-0.2,0-0.4,0-0.7,0l-2.1-3.2l-7.4-10.7l-0.9-1.2c0,0.4,0,0.8-0.1,1.2l-0.4,11l-0.1,2.9c-0.2,0-0.4,0-0.5,0 C508.8,300.2,508.7,300.2,508.5,300.2z"/><path d="M531.9,288.1c0.7,0,1.4,0.1,2.1,0.3s1.3,0.5,1.8,1s0.9,1.1,1.2,1.9s0.4,1.6,0.4,2.5c0,1-0.1,1.9-0.4,2.7 s-0.7,1.6-1.2,2.2s-1.2,1-1.9,1.2s-1.5,0.4-2.3,0.4c-0.6,0-1.1-0.1-1.7-0.2s-1.1-0.3-1.5-0.7s-0.9-0.7-1.2-1.2s-0.6-1.1-0.8-1.7 s-0.3-1.4-0.3-2.1c0-1.3,0.2-2.4,0.7-3.5s1.2-1.8,2.1-2.3S530.8,288.1,531.9,288.1z M531.8,288.7c-0.9,0-1.8,0.2-2.6,0.7 c-0.8,0.5-1.4,1.1-1.8,2.1s-0.6,1.9-0.6,3.1c0,0.8,0.1,1.5,0.3,2.2s0.6,1.3,1,1.7c0.5,0.5,1,0.8,1.5,1s1.1,0.3,1.7,0.3 c0.7,0,1.3-0.1,2-0.3c0.6-0.2,1.1-0.6,1.6-1.1c0.5-0.5,0.8-1.2,1-2s0.3-1.6,0.3-2.5c0-0.8-0.1-1.6-0.3-2.3s-0.5-1.3-1-1.7 c-0.5-0.4-1-0.7-1.5-0.9S532.4,288.7,531.8,288.7z"/><path d="M545.5,299.4c-0.1,0.2-0.1,0.5-0.1,0.7c-0.6,0.2-1.2,0.2-1.7,0.2c-0.4,0-0.8,0-1.2-0.1s-0.6-0.3-0.8-0.5 s-0.4-0.5-0.4-0.8s-0.1-0.6-0.1-1c0-0.1,0-0.2,0-0.3s0-0.4,0-0.9l0.4-7.8H540c0-0.2,0.1-0.4,0.1-0.6h1.4c0-0.5,0.1-1.2,0.1-2.2 c0.3,0,0.6-0.1,0.8-0.2c-0.1,1.3-0.1,2.1-0.1,2.4h3.5c0,0.2-0.1,0.4-0.1,0.6h-3.5l-0.4,8l0,0.5c0,0.7,0.1,1.1,0.2,1.4 s0.4,0.5,0.6,0.6s0.6,0.2,0.9,0.2c0.2,0,0.4,0,0.7-0.1S544.9,299.6,545.5,299.4z"/><path d="M548.3,300.2c0.1-1.2,0.2-3.2,0.3-6.1c0.1-2.9,0.2-4.8,0.2-5.7c0.2,0,0.4,0,0.5,0c0.1,0,0.3,0,0.5,0 c-0.1,1.5-0.2,3.5-0.3,6.1c-0.1,2.6-0.2,4.5-0.2,5.8c-0.2,0-0.4,0-0.5,0C548.6,300.2,548.5,300.2,548.3,300.2z M548.7,285.3 l0-1.2c0.2,0,0.4,0,0.6,0s0.4,0,0.6,0l0,1.2c-0.2,0-0.4,0-0.6,0S548.9,285.3,548.7,285.3z"/><path d="M553.7,300.2l0.2-4.1l0.2-7h-1.5c0-0.2,0.1-0.4,0.1-0.7h1.4c0-1.1,0.1-1.8,0.1-2c0-0.4,0.1-0.7,0.2-1s0.2-0.4,0.4-0.6 c0.1-0.2,0.3-0.3,0.6-0.5s0.5-0.3,0.9-0.3s0.7-0.1,1.1-0.1c0.3,0,0.5,0,0.8,0s0.6,0.1,1.1,0.2c0,0.2,0.1,0.5,0.1,0.8 c-0.7-0.3-1.4-0.4-2-0.4c-0.3,0-0.6,0-0.9,0.1s-0.5,0.2-0.7,0.3s-0.3,0.3-0.4,0.5s-0.2,0.4-0.3,0.6s-0.1,0.6-0.1,1 c0,0.1,0,0.5,0,1.2h3.5c0,0.2-0.1,0.4-0.1,0.7h-3.5l-0.3,11.2c-0.2,0-0.4,0-0.5,0C554,300.2,553.9,300.2,553.7,300.2z"/><path d="M560.4,300.2c0.1-1.2,0.2-3.2,0.3-6.1c0.1-2.9,0.2-4.8,0.2-5.7c0.2,0,0.4,0,0.5,0c0.1,0,0.3,0,0.5,0 c-0.1,1.5-0.2,3.5-0.3,6.1c-0.1,2.6-0.2,4.5-0.2,5.8c-0.2,0-0.4,0-0.5,0C560.8,300.2,560.6,300.2,560.4,300.2z M560.8,285.3 l0-1.2c0.2,0,0.4,0,0.6,0s0.4,0,0.6,0l0,1.2c-0.2,0-0.4,0-0.6,0S561,285.3,560.8,285.3z"/><path d="M574.5,299c-0.1,0.3-0.1,0.6-0.1,0.9c-0.6,0.2-1.2,0.3-1.7,0.4s-1,0.1-1.6,0.1c-0.9,0-1.8-0.1-2.5-0.4 c-0.7-0.3-1.3-0.7-1.9-1.3c-0.5-0.6-0.9-1.3-1.1-2c-0.2-0.7-0.3-1.5-0.3-2.3c0-1.1,0.2-2.1,0.6-3s1-1.7,1.9-2.4s1.9-0.9,3.2-0.9 c0.9,0,1.7,0.2,2.4,0.5s1.3,0.9,1.7,1.6s0.6,1.6,0.6,2.6c0,0.2,0,0.4,0,0.5l-9.3,0c0,0.5-0.1,0.9-0.1,1.1c0,0.7,0.1,1.5,0.3,2.2 s0.5,1.3,1,1.7c0.4,0.5,1,0.8,1.6,1c0.6,0.2,1.3,0.3,2,0.3C572,299.7,573.2,299.5,574.5,299z M566.2,292.7l8.3,0 c0-0.5,0-1-0.1-1.2s-0.2-0.6-0.3-0.9s-0.3-0.6-0.5-0.8c-0.2-0.2-0.4-0.4-0.7-0.6c-0.3-0.2-0.6-0.3-0.9-0.3 c-0.3-0.1-0.7-0.1-1.1-0.1c-0.4,0-0.8,0-1.2,0.1c-0.4,0.1-0.8,0.2-1.1,0.4c-0.3,0.2-0.6,0.4-0.9,0.6c-0.3,0.3-0.5,0.5-0.7,0.8 s-0.3,0.6-0.4,0.8S566.4,292.2,566.2,292.7z"/><path d="M578.4,300.2c0.1-1.6,0.2-3.6,0.3-5.8s0.1-3.9,0.1-5l0-1.1c0.2,0,0.3,0,0.4,0c0.1,0,0.3,0,0.4,0l-0.1,2.2 c0.3-0.5,0.5-0.9,0.7-1.2c0.2-0.3,0.5-0.5,0.8-0.7c0.3-0.2,0.7-0.3,1.1-0.4s0.8-0.1,1.3-0.1c0.3,0,0.6,0,1,0.1c0,0.3,0,0.5,0,0.8 c-0.5-0.1-1-0.2-1.4-0.2c-0.4,0-0.7,0.1-1,0.2c-0.3,0.1-0.6,0.3-0.8,0.4s-0.5,0.5-0.8,0.8c-0.3,0.3-0.4,0.7-0.6,1.1 c-0.2,0.4-0.3,1-0.3,1.6c-0.1,1-0.1,2.1-0.2,3.4c0,1.7,0,3,0,3.8c-0.2,0-0.4,0-0.5,0C578.8,300.2,578.6,300.2,578.4,300.2z"/></g></g></switch></svg>